<?xml version="1.0" encoding="utf-8"?>
<!-- Generator: Adobe Illustrator 23.0.0, SVG Export Plug-In . SVG Version: 6.00 Build 0)  -->
<svg version="1.1" id="Layer_1"
    xmlns="http://www.w3.org/2000/svg"
    xmlns:xlink="http://www.w3.org/1999/xlink" x="0px" y="0px"
	 viewBox="0 0 512 512" style="enable-background:new 0 0 512 512;" xml:space="preserve">
    <style type="text/css">
	.st0{fill:#222222}.st1{fill:#F7CB58}@keyframes eyeup{0%{transform:translateY(0px)}10%{transform:translateY(-20px)}20%{transform:translateY(-38px)}30%{transform:translateY(-38px)}40%{transform:translateY(-38px)}50%{transform:translateY(-38px)}60%{transform:translateY(0px)}70%{transform:translateY(-20px)}80%{transform:translateY(-38px)}90%{transform:translateY(-20px)}100%{transform:translateY(0px)}}@keyframes eyedown{0%{transform:translateY(0px)}10%{transform:translateY(20px)}20%{transform:translateY(32px)}30%{transform:translateY(32px)}40%{transform:translateY(32px)}50%{transform:translateY(20px)}60%{transform:translateY(0px)}70%{transform:translateY(20px)}80%{transform:translateY(32px)}90%{transform:translateY(20px)}100%{transform:translateY(0px)}}@keyframes tail{0%{transform:skewX(-1deg)}5%{transform:skewX(1deg)}10%{transform:skewX(-1deg)}15%{transform:skewX(1deg)}20%{transform:skewX(0deg)}100%{transform:skewX(0deg)}}@keyframes rotating{0%{transform:rotate(1deg)}40{transform:rotate(-3deg)}60%{transform:rotate(-3deg)}80{transform:rotate(-3deg)}90{transform:rotate(-3deg)}100%{transform:rotate(0deg)}}.balb-anim .buldpenone{animation:buldpenone 3s ease-in-out infinite;transform-origin:50% 0}@keyframes legtwo{0%,100%{transform:rotate(-6deg)}50%{transform:rotate(1deg)}}@keyframes legone{0%,100%{transform:rotate(1deg)}50%{transform:rotate(-6deg)}}@keyframes boshake {0%{transform:translateY(0px)}50%{transform:translateY(-10px)}0%{transform:translateY(0px)}}
</style>

    <path class="st0" d="M300,279c0,0-12,31-9,39s20,46,18,72s-3,32-3,32l-5-10c0,0-4,36-45,44s-75,1-91-11s-35-29-37-51
	c0,0,1.1-18.3,1.4-19.3c3.9-14.8,8.3-16.6,8.7-16.2c0.8,1.1,29.6-27.3,61.1-27.9s43.8-10.6,45.8-16.2c2-5.6-4.5-39.2-4.5-39.2
	S310.2,279.3,300,279z" style="animation:1s boshake linear infinite"/>
    <path class="st0" d="M219.2,59.6c0,0,1.1,2,0.6,4.2c-0.6,2.2-2,8.4-2,11.4S217,86.4,218.7,90c1.7,3.6,5.6,7.5,7.8,10
	c2.2,2.5,3.1,10.9,3.1,10.9l-19-5.6c0,0-5.6-9.2-4.7-14.2s4.5-17.6,4.5-17.6L219.2,59.6z" style="transform-origin: 50% 50%;
    animation: rotating .9s linear infinite;"/>
    <path class="st0"  d="M183.8,101.8c0,0,11.7,4.2,16.7,8.9c5,4.7,10.6,12.8,10.6,12.8l6.4-10.3l-8.9-8.7
	C208.6,104.5,189.1,99,183.8,101.8z" style="transform-origin: 50% 50%;
    animation: rotating .8s linear infinite;"/>
    <path class="st0" style="animation:2s tail linear infinite" d="M126.1,331.1c0,0,5-9.5,6.9-9.8c1.9-0.3,2.2,4.4,2.2,4.4v10.7c0,0,1.6,19.6,2.2,20.8c0.6,1.2,8.8,12.6,8.8,12.6
	l-8.5,26.2l-11-3.8c0,0-22.4-23-26.5-32.5c-4.1-9.5-13.9-30-13.9-30l17.3,11.7l-4.7-40.1L126.1,331.1z"/>
    <path class="st0" d="M200.9,114c0,0-45.3,27.3-33.7,81.8s32.5,70.8,70.2,84.8c37.7,13.9,80.7-6.4,80.7-6.4s24.4-16.3,31.9-24.4
	c7.5-8.1,22.1-72.6,14.5-90s-38.9-58.6-67.9-63.3C267.6,91.9,227.6,88.4,200.9,114z" style="
    transform-origin: 50% 50%;
    animation: rotating .8s linear infinite;"/>
    <path class="st0" d="M201.4,459.5c0,0,12.3,19.9,12.3,22.1c0,2.2-7.6,18.3-9.5,19.6c-1.9,1.3-1.3,3.2-1.3,3.2l18.3,5.4l1.9-2.2
	l-13.6-3.8l10.4-20.2l-23.4-47.4l-5.6,5.6L201.4,459.5z" style="animation: legone .3s ease-in-out infinite;
  transform-origin: 50% 0;"/>
    <path class="st0" d="M217.8,442.2l30.3,34c0,0-12.3,19.9-12.9,21.4c-0.6,1.6,15.1,6,16.4,5.7c1.3-0.3,3.8-0.9,3.8-0.9l-12.9-4.1
	c0,0,11-19.6,11-20.5c0-0.9-23.4-37.2-23.4-37.2L217.8,442.2z" style="animation: legtwo .3s ease-in-out infinite;
  transform-origin: 50% 0;"/>
    <path class="st1" d="M437.1,202.2l-84.8,45.3c0,0-13.9-23.8-13.4-48.2c0.6-24.4,18.6-53.4,18.6-53.4L437.1,202.2z" style="
    transform-origin: 50% 50%;
    animation: rotating .8s linear infinite;"/>
    <path class="st0" d="M399.4,317.1"/>
    <path class="st1" d="M295.5,185.3c0,27-20.8,48.8-46.4,48.8c-25.6,0-46.4-21.9-46.4-48.8s20.8-45.7,46.5-45.7
	S295.5,158.4,295.5,185.3z"/>
    <ellipse class="st0" cx="247" cy="188.5" rx="10.7" ry="12.5"/>
    <path class="st0" d="M200.9,183.5c0,0,50.7,18.7,96.6,1.5c0,0-3.7-39.4-44.3-45.2S200.9,183.5,200.9,183.5z" style="animation:3s eyeup linear infinite"/>
    <path class="st0" d="M295.8,186.3c0,0-46.5,26.3-93.1-0.9c0,0-4.4,35.9,35.9,47.6c44.3,12.9,61.9-48.3,61.9-48.3L295.8,186.3z" style="animation:3s eyedown linear infinite"/>
</svg>
