<?xml version="1.0" encoding="utf-8"?>
<!-- Generator: Adobe Illustrator 23.0.0, SVG Export Plug-In . SVG Version: 6.00 Build 0)  -->
<svg version="1.1" id="Capa_1" xmlns="http://www.w3.org/2000/svg" xmlns:xlink="http://www.w3.org/1999/xlink" x="0px" y="0px"
	 viewBox="0 0 511.7 511.7" style="enable-background:new 0 0 511.7 511.7;" xml:space="preserve">
<style type="text/css">
	.st0{fill:#FFC107;}
	.st1{fill:#FFD54F;animation: 5s sun linear infinite;transform-origin: 35%;}
	.st2{fill:#E9EFF4;}
	.st3{fill:#DEE4E9;}
	@keyframes sun{
	0%,100%{
	opacity:0
	}
	50%{
	opacity:1;
	}
	}
		@keyframes cloud{
		0%, 100%{
		transform: translateX(-80px)
		}
	50%{
	transform: translateX(0px)
	}
	}
</style>
<g>
	<ellipse class="st0" cx="184" cy="225.8" rx="108.1" ry="106.8"/>
	<g>
		<path class="st1" d="M184,104.7c4,0,7.2-3.2,7.2-7.1V69.1c0-3.9-3.2-7.1-7.2-7.1s-7.2,3.2-7.2,7.1v28.5
			C176.8,101.5,180,104.7,184,104.7z"/>
		<path class="st1" d="M184,346.9c-4,0-7.2,3.2-7.2,7.1v28.5c0,3.9,3.2,7.1,7.2,7.1c4,0,7.2-3.2,7.2-7.1v-28.5
			C191.2,350.1,187.9,346.9,184,346.9z"/>
		<path class="st1" d="M342.5,218.7h-28.8c-4,0-7.2,3.2-7.2,7.1c0,3.9,3.2,7.1,7.2,7.1h28.8c4,0,7.2-3.2,7.2-7.1
			C349.7,221.9,346.4,218.7,342.5,218.7z"/>
		<path class="st1" d="M61.5,225.8c0-3.9-3.2-7.1-7.2-7.1H25.5c-4,0-7.2,3.2-7.2,7.1s3.2,7.1,7.2,7.1h28.8
			C58.3,233,61.5,229.8,61.5,225.8z"/>
		<path class="st1" d="M112.9,118.4c1.3,2.2,3.7,3.6,6.3,3.6c1.3,0,2.5-0.3,3.6-1c3.4-2,4.6-6.3,2.6-9.7L111,86.6
			c-2-3.4-6.4-4.5-9.9-2.5c-3.4,2-4.6,6.3-2.6,9.7L112.9,118.4z"/>
		<path class="st1" d="M255,333.3c-2-3.4-6.4-4.5-9.9-2.5c-3.4,2-4.6,6.3-2.6,9.7l14.4,24.7c1.3,2.2,3.7,3.6,6.3,3.6
			c1.3,0,2.5-0.3,3.6-1c3.4-2,4.6-6.3,2.6-9.7L255,333.3z"/>
		<path class="st1" d="M296.3,168.8c1.3,0,2.5-0.3,3.6-1l25-14.2c3.5-1.8,4.9-6.1,3-9.6c-1.8-3.5-6.2-4.8-9.7-3
			c-0.2,0.1-0.4,0.2-0.5,0.3l-25,14.2c-3.4,2-4.6,6.3-2.6,9.7C291.3,167.5,293.7,168.9,296.3,168.8L296.3,168.8L296.3,168.8z"/>
		<path class="st1" d="M68,283.8l-25,14.2c-3.4,2-4.6,6.3-2.6,9.7c1.3,2.2,3.7,3.6,6.2,3.6c1.3,0,2.5-0.3,3.6-1l25-14.2
			c3.5-1.8,4.9-6.1,3-9.6c-1.8-3.5-6.2-4.8-9.7-3C68.4,283.6,68.2,283.7,68,283.8L68,283.8z"/>
		<path class="st1" d="M43.1,153.6l25,14.2c1.1,0.6,2.3,1,3.6,1c4,0,7.2-3.2,7.2-7.1c0-2.5-1.4-4.9-3.6-6.2l-25-14.2
			c-3.4-2.1-7.8-1.1-9.9,2.2s-1.1,7.7,2.2,9.8C42.7,153.4,42.9,153.5,43.1,153.6L43.1,153.6z"/>
		<path class="st1" d="M324.8,298l-25-14.2c-3.4-2.1-7.8-1.1-9.9,2.2c-2.1,3.3-1.1,7.7,2.2,9.8c0.2,0.1,0.3,0.2,0.5,0.3l25,14.2
			c1.1,0.6,2.3,1,3.6,1c4,0,7.2-3.2,7.2-7.1C328.4,301.6,327.1,299.3,324.8,298L324.8,298L324.8,298z"/>
		<path class="st1" d="M245.2,121c1.1,0.6,2.3,1,3.6,1c2.6,0,5-1.4,6.3-3.6l14.4-24.7c2-3.4,0.8-7.8-2.7-9.7
			c-3.4-1.9-7.8-0.8-9.8,2.6l-14.4,24.7C240.6,114.6,241.8,119,245.2,121z"/>
		<path class="st1" d="M122.7,330.7c-3.4-2-7.9-0.8-9.8,2.6L98.5,358c-2,3.4-0.8,7.8,2.6,9.7c1.1,0.6,2.3,1,3.6,1
			c2.6,0,5-1.4,6.3-3.6l14.4-24.7C127.4,337,126.2,332.7,122.7,330.7C122.7,330.7,122.7,330.7,122.7,330.7z"/>
	</g>
</g>
<path class="st2" d="M419.2,269.7c-19.1-49.1-66.7-84-122.6-84s-103.5,34.9-122.6,84c-51.5-1.6-92.4,39.7-92.4,89.6
	c0,49.5,40.2,89.7,89.7,89.7c21.3,0,40.8-7.4,56.1-19.8c20.1,12.5,43.8,19.8,69.2,19.8s49.1-7.3,69.2-19.8
	c15.4,12.4,34.9,19.8,56.1,19.8c49.5,0,89.7-40.2,89.7-89.7C511.6,309.4,470.7,268.2,419.2,269.7z" style="animation: 4s cloud linear infinite"/>
<g style="animation: 4s cloud linear infinite">
	<path class="st3" d="M236.2,287.8c-14.9-15.7-34.8-26.6-56.9-29.2c-1.8,3.6-3.7,7.1-5.2,10.8c22.1,0.2,41.1,7.4,58,22.5
		c19.5,18.4,26.2,38.5,28.3,61.4C260.2,329.1,254.4,308.1,236.2,287.8z"/>
	<path class="st3" d="M332.2,359.3c-1.7-35.3,13.5-62.6,38-79.4c30.2-20.8,71.9-21.7,103.3,0c27.8,19,39.5,49.1,38,79.4
		c-3.1-30.6-17.7-53.8-43.6-70.9c-27.2-17.4-65.5-17.1-92.2,0C349.3,305.8,335.1,329.8,332.2,359.3z" />
</g>
</svg>
